{
  "accessors": [
    {
      "bufferView": 2,
      "componentType": 5126,
      "count": 1871,
      "max": [
        17.10200309753418,
        42.655067443847656,
        3.3574085235595703
      ],
      "min": [
        -3.3574085235595703,
        -1.0393973588943481,
        -3.3574085235595703
      ],
      "type": "VEC3"
    },
    {
      "bufferView": 2,
      "byteOffset": 22452,
      "componentType": 5126,
      "count": 1871,
      "max": [
        0.99957507848739624,
        1,
        0.99999862909317017
      ],
      "min": [
        -0.99962931871414185,
        -1,
        -0.99999850988388062
      ],
      "type": "VEC3"
    },
    {
      "bufferView": 3,
      "componentType": 5126,
      "count": 1871,
      "max": [
        1,
        0.84583193063735962,
        1,
        1
      ],
      "min": [
        -0.99999988079071045,
        -0.84582644701004028,
        -1,
        1
      ],
      "type": "VEC4"
    },
    {
      "bufferView": 1,
      "componentType": 5126,
      "count": 1871,
      "max": [
        0.99115723371505737,
        0.99116146564483643
      ],
      "min": [
        0.0088427821174263954,
        0.0088385343551635742
      ],
      "type": "VEC2"
    },
    {
      "bufferView": 0,
      "componentType": 5125,
      "count": 6642,
      "max": [
        1870
      ],
      "min": [
        0
      ],
      "type": "SCALAR"
    },
    {
      "bufferView": 2,
      "byteOffset": 44904,
      "componentType": 5126,
      "count": 12963,
      "max": [
        46.665676116943359,
        36.187721252441406,
        40.998870849609375
      ],
      "min": [
        -61.856224060058594,
        -83.214164733886719,
        -302.40737915039062
      ],
      "type": "VEC3"
    },
    {
      "bufferView": 2,
      "byteOffset": 200460,
      "componentType": 5126,
      "count": 12963,
      "max": [
        1,
        1,
        1
      ],
      "min": [
        -1,
        -1,
        -1
      ],
      "type": "VEC3"
    },
    {
      "bufferView": 3,
      "byteOffset": 29936,
      "componentType": 5126,
      "count": 12963,
      "max": [
        1,
        1,
        1,
        1
      ],
      "min": [
        -1,
        -1,
        -1,
        -1
      ],
      "type": "VEC4"
    },
    {
      "bufferView": 1,
      "byteOffset": 14968,
      "componentType": 5126,
      "count": 12963,
      "max": [
        0.9926561713218689,
        0.99265038967132568
      ],
      "min": [
        0.0073438188992440701,
        0.0073496103286743164
      ],
      "type": "VEC2"
    },
    {
      "bufferView": 0,
      "byteOffset": 26568,
      "componentType": 5125,
      "count": 41424,
      "max": [
        12962
      ],
      "min": [
        0
      ],
      "type": "SCALAR"
    },
    {
      "bufferView": 2,
      "byteOffset": 356016,
      "componentType": 5126,
      "count": 17248,
      "max": [
        56.768707275390625,
        32.377902984619141,
        7.3175749778747559
      ],
      "min": [
        24.684707641601562,
        8.4466266632080078,
        -312.25973510742188
      ],
      "type": "VEC3"
    },
    {
      "bufferView": 2,
      "byteOffset": 562992,
      "componentType": 5126,
      "count": 17248,
      "max": [
        0.99999821186065674,
        0.99957531690597534,
        0.99995815753936768
      ],
      "min": [
        -0.99999821186065674,
        -0.99957519769668579,
        -0.9999580979347229
      ],
      "type": "VEC3"
    },
    {
      "bufferView": 3,
      "byteOffset": 237344,
      "componentType": 5126,
      "count": 17248,
      "max": [
        1,
        0.74385881423950195,
        1,
        1
      ],
      "min": [
        -1,
        -0.74555391073226929,
        -1,
        -1
      ],
      "type": "VEC4"
    },
    {
      "bufferView": 1,
      "byteOffset": 118672,
      "componentType": 5126,
      "count": 17248,
      "max": [
        0.99190413951873779,
        0.99154174327850342
      ],
      "min": [
        0.0080958595499396324,
        0.008458256721496582
      ],
      "type": "VEC2"
    },
    {
      "bufferView": 0,
      "byteOffset": 192264,
      "componentType": 5125,
      "count": 89712,
      "max": [
        17247
      ],
      "min": [
        0
      ],
      "type": "SCALAR"
    },
    {
      "bufferView": 2,
      "byteOffset": 769968,
      "componentType": 5126,
      "count": 9169,
      "max": [
        41.267547607421875,
        41.33892822265625,
        4.7053003311157227
      ],
      "min": [
        -146.86891174316406,
        -184.56253051757812,
        -266.04055786132812
      ],
      "type": "VEC3"
    },
    {
      "bufferView": 2,
      "byteOffset": 879996,
      "componentType": 5126,
      "count": 9169,
      "max": [
        0.99999630451202393,
        1,
        1
      ],
      "min": [
        -0.99999630451202393,
        -1,
        -1
      ],
      "type": "VEC3"
    },
    {
      "bufferView": 3,
      "byteOffset": 513312,
      "componentType": 5126,
      "count": 9169,
      "max": [
        1,
        0.99948495626449585,
        0.99999630451202393,
        1
      ],
      "min": [
        -1,
        -0.99986594915390015,
        -0.9999963641166687,
        -1
      ],
      "type": "VEC4"
    },
    {
      "bufferView": 1,
      "byteOffset": 256656,
      "componentType": 5126,
      "count": 9169,
      "max": [
        0.98916429281234741,
        0.99232715368270874
      ],
      "min": [
        0.0078518716618418694,
        0.0076729059219360352
      ],
      "type": "VEC2"
    },
    {
      "bufferView": 0,
      "byteOffset": 551112,
      "componentType": 5125,
      "count": 25737,
      "max": [
        9168
      ],
      "min": [
        0
      ],
      "type": "SCALAR"
    },
    {
      "bufferView": 2,
      "byteOffset": 990024,
      "componentType": 5126,
      "count": 3956,
      "max": [
        9.2113056182861328,
        36.816062927246094,
        9.2113056182861328
      ],
      "min": [
        -9.2113056182861328,
        -23.707965850830078,
        -279.85379028320312
      ],
      "type": "VEC3"
    },
    {
      "bufferView": 2,
      "byteOffset": 1037496,
      "componentType": 5126,
      "count": 3956,
      "max": [
        1,
        1,
        1
      ],
      "min": [
        -1,
        -1,
        -1
      ],
      "type": "VEC3"
    },
    {
      "bufferView": 3,
      "byteOffset": 660016,
      "componentType": 5126,
      "count": 3956,
      "max": [
        1,
        0.78724145889282227,
        1,
        1
      ],
      "min": [
        -1,
        -0.78724151849746704,
        -1,
        -1
      ],
      "type": "VEC4"
    },
    {
      "bufferView": 1,
      "byteOffset": 330008,
      "componentType": 5126,
      "count": 3956,
      "max": [
        0.99175012111663818,
        0.99176269769668579
      ],
      "min": [
        0.0082498965784907341,
        0.0082373619079589844
      ],
      "type": "VEC2"
    },
    {
      "bufferView": 0,
      "byteOffset": 654060,
      "componentType": 5125,
      "count": 10800,
      "max": [
        3955
      ],
      "min": [
        0
      ],
      "type": "SCALAR"
    },
    {
      "bufferView": 2,
      "byteOffset": 1084968,
      "componentType": 5126,
      "count": 8526,
      "max": [
        101.46590423583984,
        83.752655029296875,
        101.26568603515625
      ],
      "min": [
        -101.46590423583984,
        -103.44683074951172,
        -101.26568603515625
      ],
      "type": "VEC3"
    },
    {
      "bufferView": 2,
      "byteOffset": 1187280,
      "componentType": 5126,
      "count": 8526,
      "max": [
        1,
        1,
        0.99987983703613281
      ],
      "min": [
        -1,
        -1,
        -0.99989587068557739
      ],
      "type": "VEC3"
    },
    {
      "bufferView": 3,
      "byteOffset": 723312,
      "componentType": 5126,
      "count": 8526,
      "max": [
        1,
        0.85673463344573975,
        1,
        1
      ],
      "min": [
        -1,
        -0.85398662090301514,
        -1,
        1
      ],
      "type": "VEC4"
    },
    {
      "bufferView": 1,
      "byteOffset": 361656,
      "componentType": 5126,
      "count": 8526,
      "max": [
        0.99175554513931274,
        0.99190670251846313
      ],
      "min": [
        0.0082444325089454651,
        0.0080933570861816406
      ],
      "type": "VEC2"
    },
    {
      "bufferView": 0,
      "byteOffset": 697260,
      "componentType": 5125,
      "count": 27036,
      "max": [
        8525
      ],
      "min": [
        0
      ],
      "type": "SCALAR"
    }
  ],
  "asset": {
    "extras": {
      "author": "peterwolf (https://sketchfab.com/peterwolf)",
      "license": "CC-BY-NC-4.0 (http://creativecommons.org/licenses/by-nc/4.0/)",
      "source": "https://sketchfab.com/models/61ff09c54b4e4dc8ac6ef1a6dc828501",
      "title": "Drone futuriste"
    },
    "generator": "Sketchfab-3.19.4",
    "version": "2.0"
  },
  "bufferViews": [
    {
      "buffer": 0,
      "byteLength": 805404,
      "byteOffset": 0,
      "name": "floatBufferViews",
      "target": 34963
    },
    {
      "buffer": 0,
      "byteLength": 429864,
      "byteOffset": 805404,
      "byteStride": 8,
      "name": "floatBufferViews",
      "target": 34962
    },
    {
      "buffer": 0,
      "byteLength": 1289592,
      "byteOffset": 1235268,
      "byteStride": 12,
      "name": "floatBufferViews",
      "target": 34962
    },
    {
      "buffer": 0,
      "byteLength": 859728,
      "byteOffset": 2524860,
      "byteStride": 16,
      "name": "floatBufferViews",
      "target": 34962
    }
  ],
  "buffers": [
    {
      "byteLength": 3384588,
      "uri": "scene.bin"
    }
  ],
  "images": [
    {
      "uri": "textures/corps_emissive.png"
    },
    {
      "uri": "textures/corps_normal.png"
    },
    {
      "uri": "textures/corps_metallicRoughness.png"
    },
    {
      "uri": "textures/corps_baseColor.png"
    },
    {
      "uri": "textures/cable_normal.png"
    },
    {
      "uri": "textures/cable_metallicRoughness.png"
    },
    {
      "uri": "textures/cable_baseColor.png"
    },
    {
      "uri": "textures/canon_normal.png"
    },
    {
      "uri": "textures/canon_metallicRoughness.png"
    },
    {
      "uri": "textures/canon_baseColor.png"
    },
    {
      "uri": "textures/fusil_emissive.png"
    },
    {
      "uri": "textures/fusil_normal.png"
    },
    {
      "uri": "textures/fusil_metallicRoughness.png"
    },
    {
      "uri": "textures/fusil_baseColor.png"
    },
    {
      "uri": "textures/accroche_normal.png"
    },
    {
      "uri": "textures/accroche_metallicRoughness.png"
    },
    {
      "uri": "textures/accroche_baseColor.png"
    },
    {
      "uri": "textures/antenne_normal.png"
    },
    {
      "uri": "textures/antenne_metallicRoughness.png"
    },
    {
      "uri": "textures/antenne_baseColor.png"
    }
  ],
  "materials": [
    {
      "doubleSided": true,
      "emissiveFactor": [
        0,
        0,
        0
      ],
      "name": "antenne",
      "normalTexture": {
        "index": 17,
        "scale": 1,
        "texCoord": 0
      },
      "pbrMetallicRoughness": {
        "baseColorFactor": [
          1,
          1,
          1,
          1
        ],
        "baseColorTexture": {
          "index": 19,
          "texCoord": 0
        },
        "metallicFactor": 1,
        "metallicRoughnessTexture": {
          "index": 18,
          "texCoord": 0
        },
        "roughnessFactor": 1
      }
    },
    {
      "doubleSided": true,
      "emissiveFactor": [
        0,
        0,
        0
      ],
      "name": "accroche",
      "normalTexture": {
        "index": 14,
        "scale": 1,
        "texCoord": 0
      },
      "pbrMetallicRoughness": {
        "baseColorFactor": [
          1,
          1,
          1,
          1
        ],
        "baseColorTexture": {
          "index": 16,
          "texCoord": 0
        },
        "metallicFactor": 1,
        "metallicRoughnessTexture": {
          "index": 15,
          "texCoord": 0
        },
        "roughnessFactor": 1
      }
    },
    {
      "doubleSided": true,
      "emissiveFactor": [
        0,
        0,
        0
      ],
      "name": "cable",
      "normalTexture": {
        "index": 4,
        "scale": 1,
        "texCoord": 0
      },
      "pbrMetallicRoughness": {
        "baseColorFactor": [
          1,
          1,
          1,
          1
        ],
        "baseColorTexture": {
          "index": 6,
          "texCoord": 0
        },
        "metallicFactor": 1,
        "metallicRoughnessTexture": {
          "index": 5,
          "texCoord": 0
        },
        "roughnessFactor": 1
      }
    },
    {
      "doubleSided": true,
      "emissiveFactor": [
        1,
        1,
        1
      ],
      "emissiveTexture": {
        "index": 10,
        "texCoord": 0
      },
      "name": "fusil",
      "normalTexture": {
        "index": 11,
        "scale": 1,
        "texCoord": 0
      },
      "pbrMetallicRoughness": {
        "baseColorFactor": [
          1,
          1,
          1,
          1
        ],
        "baseColorTexture": {
          "index": 13,
          "texCoord": 0
        },
        "metallicFactor": 1,
        "metallicRoughnessTexture": {
          "index": 12,
          "texCoord": 0
        },
        "roughnessFactor": 1
      }
    },
    {
      "doubleSided": true,
      "emissiveFactor": [
        0,
        0,
        0
      ],
      "name": "canon",
      "normalTexture": {
        "index": 7,
        "scale": 1,
        "texCoord": 0
      },
      "pbrMetallicRoughness": {
        "baseColorFactor": [
          1,
          1,
          1,
          1
        ],
        "baseColorTexture": {
          "index": 9,
          "texCoord": 0
        },
        "metallicFactor": 1,
        "metallicRoughnessTexture": {
          "index": 8,
          "texCoord": 0
        },
        "roughnessFactor": 1
      }
    },
    {
      "doubleSided": true,
      "emissiveFactor": [
        1,
        1,
        1
      ],
      "emissiveTexture": {
        "index": 0,
        "texCoord": 0
      },
      "name": "corps",
      "normalTexture": {
        "index": 1,
        "scale": 1,
        "texCoord": 0
      },
      "pbrMetallicRoughness": {
        "baseColorFactor": [
          1,
          1,
          1,
          1
        ],
        "baseColorTexture": {
          "index": 3,
          "texCoord": 0
        },
        "metallicFactor": 1,
        "metallicRoughnessTexture": {
          "index": 2,
          "texCoord": 0
        },
        "roughnessFactor": 1
      }
    }
  ],
  "meshes": [
    {
      "name": "Cylinder_antenne_0",
      "primitives": [
        {
          "attributes": {
            "NORMAL": 1,
            "POSITION": 0,
            "TANGENT": 2,
            "TEXCOORD_0": 3
          },
          "indices": 4,
          "material": 0,
          "mode": 4
        }
      ]
    },
    {
      "name": "accroche_1_accroche_0",
      "primitives": [
        {
          "attributes": {
            "NORMAL": 6,
            "POSITION": 5,
            "TANGENT": 7,
            "TEXCOORD_0": 8
          },
          "indices": 9,
          "material": 1,
          "mode": 4
        }
      ]
    },
    {
      "name": "cable_cable_0",
      "primitives": [
        {
          "attributes": {
            "NORMAL": 11,
            "POSITION": 10,
            "TANGENT": 12,
            "TEXCOORD_0": 13
          },
          "indices": 14,
          "material": 2,
          "mode": 4
        }
      ]
    },
    {
      "name": "fusil_fusil_0",
      "primitives": [
        {
          "attributes": {
            "NORMAL": 16,
            "POSITION": 15,
            "TANGENT": 17,
            "TEXCOORD_0": 18
          },
          "indices": 19,
          "material": 3,
          "mode": 4
        }
      ]
    },
    {
      "name": "canon_canon_0",
      "primitives": [
        {
          "attributes": {
            "NORMAL": 21,
            "POSITION": 20,
            "TANGENT": 22,
            "TEXCOORD_0": 23
          },
          "indices": 24,
          "material": 4,
          "mode": 4
        }
      ]
    },
    {
      "name": "Sphere_corps_0",
      "primitives": [
        {
          "attributes": {
            "NORMAL": 26,
            "POSITION": 25,
            "TANGENT": 27,
            "TEXCOORD_0": 28
          },
          "indices": 29,
          "material": 5,
          "mode": 4
        }
      ]
    }
  ],
  "nodes": [
    {
      "children": [
        1
      ],
      "name": "RootNode (gltf orientation matrix)",
      "rotation": [
        -0.70710678118654746,
        -0,
        -0,
        0.70710678118654757
      ]
    },
    {
      "children": [
        2
      ],
      "name": "RootNode (model correction matrix)"
    },
    {
      "children": [
        3
      ],
      "matrix": [
        1,
        0,
        0,
        0,
        0,
        0,
        1,
        0,
        0,
        -1,
        0,
        0,
        0,
        0,
        0,
        1
      ],
      "name": "498f956627604e3697f7133132adddb1.fbx"
    },
    {
      "children": [
        4,
        6,
        8,
        10,
        12,
        14
      ],
      "name": "RootNode"
    },
    {
      "children": [
        5
      ],
      "matrix": [
        -0.9998303585906676,
        1.2244390483384113e-16,
        -0.018418850139393948,
        0,
        1.2472033850145369e-16,
        1,
        -1.2244390483384113e-16,
        0,
        0.018418850139393948,
        -1.2472033850145369e-16,
        -0.9998303585906676,
        0,
        -9.8494329452514648,
        26.095277786254883,
        107.72785186767578,
        1
      ],
      "name": "Cylinder"
    },
    {
      "mesh": 0,
      "name": "Cylinder_antenne_0"
    },
    {
      "children": [
        7
      ],
      "matrix": [
        0.99983035859066738,
        0,
        0.018418850139394816,
        0,
        0,
        1,
        0,
        0,
        -0.018418850139394816,
        0,
        0.99983035859066738,
        0,
        4.9072098731994629,
        38.615085601806641,
        130.79580688476562,
        1
      ],
      "name": "accroche_1"
    },
    {
      "mesh": 1,
      "name": "accroche_1_accroche_0"
    },
    {
      "children": [
        9
      ],
      "matrix": [
        0.99983035859066738,
        0,
        0.018418850139394816,
        0,
        0,
        1,
        0,
        0,
        -0.018418850139394816,
        0,
        0.99983035859066738,
        0,
        10.428441047668457,
        0,
        151.91278076171875,
        1
      ],
      "name": "cable"
    },
    {
      "mesh": 2,
      "name": "cable_cable_0"
    },
    {
      "children": [
        11
      ],
      "matrix": [
        -0.0091797619234825767,
        -0.86695321903603362,
        0.49830497486387543,
        0,
        0.99983035859066738,
        0,
        0.018418850139394705,
        0,
        -0.015968281419290575,
        0.49838952236484602,
        0.86680614787013077,
        0,
        73.996917724609375,
        17.647533416748047,
        139.2362060546875,
        1
      ],
      "name": "fusil"
    },
    {
      "mesh": 3,
      "name": "fusil_fusil_0"
    },
    {
      "children": [
        13
      ],
      "matrix": [
        5.5511151231257827e-16,
        -1,
        3.4694469519536142e-18,
        0,
        0.99983035859066738,
        5.5511151231257827e-16,
        0.018418850139394819,
        0,
        -0.018418850139394819,
        -6.9388939039072284e-18,
        0.99983035859066738,
        0,
        100.11601257324219,
        6.3805112838745117,
        134.70164489746094,
        1
      ],
      "name": "canon"
    },
    {
      "mesh": 4,
      "name": "canon_canon_0"
    },
    {
      "children": [
        15
      ],
      "matrix": [
        4.4408920985006262e-16,
        -1,
        0,
        0,
        1,
        4.4408920985006262e-16,
        0,
        0,
        0,
        0,
        1,
        0,
        0,
        0,
        0,
        1
      ],
      "name": "Sphere"
    },
    {
      "mesh": 5,
      "name": "Sphere_corps_0"
    }
  ],
  "samplers": [
    {
      "magFilter": 9729,
      "minFilter": 9987,
      "wrapS": 10497,
      "wrapT": 10497
    }
  ],
  "scene": 0,
  "scenes": [
    {
      "name": "OSG_Scene",
      "nodes": [
        0
      ]
    }
  ],
  "textures": [
    {
      "sampler": 0,
      "source": 0
    },
    {
      "sampler": 0,
      "source": 1
    },
    {
      "sampler": 0,
      "source": 2
    },
    {
      "sampler": 0,
      "source": 3
    },
    {
      "sampler": 0,
      "source": 4
    },
    {
      "sampler": 0,
      "source": 5
    },
    {
      "sampler": 0,
      "source": 6
    },
    {
      "sampler": 0,
      "source": 7
    },
    {
      "sampler": 0,
      "source": 8
    },
    {
      "sampler": 0,
      "source": 9
    },
    {
      "sampler": 0,
      "source": 10
    },
    {
      "sampler": 0,
      "source": 11
    },
    {
      "sampler": 0,
      "source": 12
    },
    {
      "sampler": 0,
      "source": 13
    },
    {
      "sampler": 0,
      "source": 14
    },
    {
      "sampler": 0,
      "source": 15
    },
    {
      "sampler": 0,
      "source": 16
    },
    {
      "sampler": 0,
      "source": 17
    },
    {
      "sampler": 0,
      "source": 18
    },
    {
      "sampler": 0,
      "source": 19
    }
  ]
}

