{
  "accessors": [
    {
      "bufferView": 2,
      "componentType": 5126,
      "count": 1378,
      "max": [
        3.0500001907348633,
        0.65000003576278687,
        3.8199999332427979
      ],
      "min": [
        -3.0500001907348633,
        -0.47499999403953552,
        -3.0499999523162842
      ],
      "type": "VEC3"
    },
    {
      "bufferView": 2,
      "byteOffset": 16536,
      "componentType": 5126,
      "count": 1378,
      "max": [
        1,
        1,
        1
      ],
      "min": [
        -1,
        -1,
        -1
      ],
      "type": "VEC3"
    },
    {
      "bufferView": 1,
      "componentType": 5126,
      "count": 1378,
      "max": [
        0.94254589080810547,
        0.93319255113601685
      ],
      "min": [
        0.18833869695663452,
        0.16958361864089966
      ],
      "type": "VEC2"
    },
    {
      "bufferView": 0,
      "componentType": 5125,
      "count": 2166,
      "max": [
        1377
      ],
      "min": [
        0
      ],
      "type": "SCALAR"
    },
    {
      "bufferView": 2,
      "byteOffset": 33072,
      "componentType": 5126,
      "count": 360,
      "max": [
        0.48746404051780701,
        1.5,
        1.4265848398208618
      ],
      "min": [
        -0.48746415972709656,
        -1.5,
        -1.4265848398208618
      ],
      "type": "VEC3"
    },
    {
      "bufferView": 2,
      "byteOffset": 37392,
      "componentType": 5126,
      "count": 360,
      "max": [
        1,
        0.99754422903060913,
        1
      ],
      "min": [
        -1,
        -0.99754422903060913,
        -1
      ],
      "type": "VEC3"
    },
    {
      "bufferView": 1,
      "byteOffset": 11024,
      "componentType": 5126,
      "count": 360,
      "max": [
        0.93664538860321045,
        0.92788994312286377
      ],
      "min": [
        0.93660944700241089,
        0.92359912395477295
      ],
      "type": "VEC2"
    },
    {
      "bufferView": 0,
      "byteOffset": 8664,
      "componentType": 5125,
      "count": 540,
      "max": [
        359
      ],
      "min": [
        0
      ],
      "type": "SCALAR"
    },
    {
      "bufferView": 2,
      "byteOffset": 41712,
      "componentType": 5126,
      "count": 360,
      "max": [
        0.48746404051780701,
        1.5,
        1.4265848398208618
      ],
      "min": [
        -0.48746415972709656,
        -1.5,
        -1.4265848398208618
      ],
      "type": "VEC3"
    },
    {
      "bufferView": 2,
      "byteOffset": 46032,
      "componentType": 5126,
      "count": 360,
      "max": [
        1,
        0.99754422903060913,
        1
      ],
      "min": [
        -1,
        -0.99754422903060913,
        -1
      ],
      "type": "VEC3"
    },
    {
      "bufferView": 1,
      "byteOffset": 13904,
      "componentType": 5126,
      "count": 360,
      "max": [
        0.93653202056884766,
        0.92788994312286377
      ],
      "min": [
        0.93649601936340332,
        0.92359912395477295
      ],
      "type": "VEC2"
    },
    {
      "bufferView": 0,
      "byteOffset": 10824,
      "componentType": 5125,
      "count": 540,
      "max": [
        359
      ],
      "min": [
        0
      ],
      "type": "SCALAR"
    },
    {
      "bufferView": 2,
      "byteOffset": 50352,
      "componentType": 5126,
      "count": 360,
      "max": [
        0.48746404051780701,
        1.5,
        1.4265848398208618
      ],
      "min": [
        -0.48746415972709656,
        -1.5,
        -1.4265848398208618
      ],
      "type": "VEC3"
    },
    {
      "bufferView": 2,
      "byteOffset": 54672,
      "componentType": 5126,
      "count": 360,
      "max": [
        1,
        0.99754422903060913,
        1
      ],
      "min": [
        -1,
        -0.99754422903060913,
        -1
      ],
      "type": "VEC3"
    },
    {
      "bufferView": 1,
      "byteOffset": 16784,
      "componentType": 5126,
      "count": 360,
      "max": [
        0.93656980991363525,
        0.92788994312286377
      ],
      "min": [
        0.93653380870819092,
        0.92359912395477295
      ],
      "type": "VEC2"
    },
    {
      "bufferView": 0,
      "byteOffset": 12984,
      "componentType": 5125,
      "count": 540,
      "max": [
        359
      ],
      "min": [
        0
      ],
      "type": "SCALAR"
    },
    {
      "bufferView": 2,
      "byteOffset": 58992,
      "componentType": 5126,
      "count": 360,
      "max": [
        0.48746404051780701,
        1.5,
        1.4265848398208618
      ],
      "min": [
        -0.48746415972709656,
        -1.5,
        -1.4265848398208618
      ],
      "type": "VEC3"
    },
    {
      "bufferView": 2,
      "byteOffset": 63312,
      "componentType": 5126,
      "count": 360,
      "max": [
        1,
        0.99754422903060913,
        1
      ],
      "min": [
        -1,
        -0.99754422903060913,
        -1
      ],
      "type": "VEC3"
    },
    {
      "bufferView": 1,
      "byteOffset": 19664,
      "componentType": 5126,
      "count": 360,
      "max": [
        0.93660759925842285,
        0.92788994312286377
      ],
      "min": [
        0.93657165765762329,
        0.92359912395477295
      ],
      "type": "VEC2"
    },
    {
      "bufferView": 0,
      "byteOffset": 15144,
      "componentType": 5125,
      "count": 540,
      "max": [
        359
      ],
      "min": [
        0
      ],
      "type": "SCALAR"
    }
  ],
  "asset": {
    "extras": {
      "author": "Yash Dushettiwar (https://sketchfab.com/Yash-D)",
      "license": "CC-BY-4.0 (http://creativecommons.org/licenses/by/4.0/)",
      "source": "https://sketchfab.com/3d-models/futuristic-jet-plane-e74ee75e1aaf42deac16fe11aa4933e5",
      "title": "Futuristic Jet Plane"
    },
    "generator": "Sketchfab-9.24.0",
    "version": "2.0"
  },
  "bufferViews": [
    {
      "buffer": 0,
      "byteLength": 17304,
      "byteOffset": 0,
      "name": "floatBufferViews",
      "target": 34963
    },
    {
      "buffer": 0,
      "byteLength": 22544,
      "byteOffset": 17304,
      "byteStride": 8,
      "name": "floatBufferViews",
      "target": 34962
    },
    {
      "buffer": 0,
      "byteLength": 67632,
      "byteOffset": 39848,
      "byteStride": 12,
      "name": "floatBufferViews",
      "target": 34962
    }
  ],
  "buffers": [
    {
      "byteLength": 107480,
      "uri": "scene.bin"
    }
  ],
  "images": [
    {
      "uri": "textures/Plane_Body_baseColor.png"
    },
    {
      "uri": "textures/Plane_Body_metallicRoughness.png"
    }
  ],
  "materials": [
    {
      "doubleSided": true,
      "name": "Plane_Body",
      "pbrMetallicRoughness": {
        "baseColorFactor": [
          1,
          1,
          1,
          1
        ],
        "baseColorTexture": {
          "index": 0,
          "texCoord": 0
        },
        "metallicFactor": 1,
        "metallicRoughnessTexture": {
          "index": 1,
          "texCoord": 0
        },
        "roughnessFactor": 1
      }
    }
  ],
  "meshes": [
    {
      "name": "Plane_Plane Body_0",
      "primitives": [
        {
          "attributes": {
            "NORMAL": 1,
            "POSITION": 0,
            "TEXCOORD_0": 2
          },
          "indices": 3,
          "material": 0,
          "mode": 4
        }
      ]
    },
    {
      "name": "FL_Plane Body_0",
      "primitives": [
        {
          "attributes": {
            "NORMAL": 5,
            "POSITION": 4,
            "TEXCOORD_0": 6
          },
          "indices": 7,
          "material": 0,
          "mode": 4
        }
      ]
    },
    {
      "name": "BR_Plane Body_0",
      "primitives": [
        {
          "attributes": {
            "NORMAL": 9,
            "POSITION": 8,
            "TEXCOORD_0": 10
          },
          "indices": 11,
          "material": 0,
          "mode": 4
        }
      ]
    },
    {
      "name": "BL_Plane Body_0",
      "primitives": [
        {
          "attributes": {
            "NORMAL": 13,
            "POSITION": 12,
            "TEXCOORD_0": 14
          },
          "indices": 15,
          "material": 0,
          "mode": 4
        }
      ]
    },
    {
      "name": "FR_Plane Body_0",
      "primitives": [
        {
          "attributes": {
            "NORMAL": 17,
            "POSITION": 16,
            "TEXCOORD_0": 18
          },
          "indices": 19,
          "material": 0,
          "mode": 4
        }
      ]
    }
  ],
  "nodes": [
    {
      "children": [
        1
      ],
      "name": "RootNode (gltf orientation matrix)",
      "rotation": [
        -0.70710678118654746,
        -0,
        -0,
        0.70710678118654757
      ]
    },
    {
      "children": [
        2
      ],
      "matrix": [
        0.99907881021499634,
        0,
        -0.042913265526294708,
        0,
        0,
        1,
        0,
        0,
        0.042913265526294708,
        0,
        0.99907881021499634,
        0,
        -0.026820287108421326,
        0,
        0.00057570752687752247,
        1
      ],
      "name": "RootNode (model correction matrix)"
    },
    {
      "children": [
        3
      ],
      "matrix": [
        1,
        0,
        0,
        0,
        0,
        0,
        1,
        0,
        0,
        -1,
        0,
        0,
        0,
        0,
        0,
        1
      ],
      "name": "Jet.fbx"
    },
    {
      "children": [
        4,
        6,
        8,
        10,
        12,
        14
      ],
      "name": "RootNode"
    },
    {
      "children": [
        5
      ],
      "matrix": [
        1,
        0,
        0,
        0,
        0,
        1,
        0,
        0,
        0,
        0,
        1,
        0,
        0,
        0.59999996423721313,
        0,
        1
      ],
      "name": "Plane"
    },
    {
      "mesh": 0,
      "name": "Plane_Plane Body_0"
    },
    {
      "children": [
        7
      ],
      "matrix": [
        0.10000000149011612,
        0,
        0,
        0,
        0,
        0.10000000149011612,
        0,
        0,
        0,
        0,
        0.10000000149011612,
        0,
        0.099999994039535522,
        0.15000000596046448,
        2,
        1
      ],
      "name": "FL"
    },
    {
      "mesh": 1,
      "name": "FL_Plane Body_0"
    },
    {
      "children": [
        9
      ],
      "matrix": [
        0.10000000149011612,
        0,
        0,
        0,
        0,
        0.10000000149011612,
        0,
        0,
        0,
        0,
        0.10000000149011612,
        0,
        -1,
        0.15000000596046448,
        -1,
        1
      ],
      "name": "BR"
    },
    {
      "mesh": 2,
      "name": "BR_Plane Body_0"
    },
    {
      "children": [
        11
      ],
      "matrix": [
        0.10000000149011612,
        0,
        0,
        0,
        0,
        0.10000000149011612,
        0,
        0,
        0,
        0,
        0.10000000149011612,
        0,
        1,
        0.15000000596046448,
        -1,
        1
      ],
      "name": "BL"
    },
    {
      "mesh": 3,
      "name": "BL_Plane Body_0"
    },
    {
      "children": [
        13
      ],
      "matrix": [
        0.10000000149011612,
        0,
        0,
        0,
        0,
        0.10000000149011612,
        0,
        0,
        0,
        0,
        0.10000000149011612,
        0,
        -0.099999994039535522,
        0.15000000596046448,
        2,
        1
      ],
      "name": "FR"
    },
    {
      "mesh": 4,
      "name": "FR_Plane Body_0"
    },
    {
      "children": [
        15
      ],
      "matrix": [
        -0.32374464062642039,
        -0.64278758765875199,
        -0.69427193866489534,
        0,
        -0.27165384266479942,
        0.7660444616024753,
        -0.58256336360401362,
        0,
        0.90630761858950182,
        -1.2679943372229867e-07,
        -0.42261848194006363,
        0,
        5,
        10,
        10,
        1
      ],
      "name": "Camera"
    },
    {
      "name": ""
    }
  ],
  "samplers": [
    {
      "magFilter": 9729,
      "minFilter": 9987,
      "wrapS": 10497,
      "wrapT": 10497
    }
  ],
  "scene": 0,
  "scenes": [
    {
      "name": "OSG_Scene",
      "nodes": [
        0
      ]
    }
  ],
  "textures": [
    {
      "sampler": 0,
      "source": 0
    },
    {
      "sampler": 0,
      "source": 1
    }
  ]
}

