{
  "accessors": [
    {
      "bufferView": 1,
      "componentType": 5126,
      "count": 9584,
      "max": [
        165.0366973876953,
        127.8566665649414,
        -197.11962890625
      ],
      "min": [
        -165.0366973876953,
        -12.704996109008789,
        -1054.0015869140625
      ],
      "type": "VEC3"
    },
    {
      "bufferView": 1,
      "byteOffset": 115008,
      "componentType": 5126,
      "count": 9584,
      "max": [
        1.0,
        1.0,
        0.9999906420707703
      ],
      "min": [
        -1.0,
        -1.0,
        -1.0
      ],
      "type": "VEC3"
    },
    {
      "bufferView": 1,
      "byteOffset": 230016,
      "componentType": 5126,
      "count": 9584,
      "max": [
        0.7921568751335144,
        0.8196078538894653,
        0.9254902005195618
      ],
      "min": [
        0.250980406999588,
        0.250980406999588,
        0.250980406999588
      ],
      "type": "VEC3"
    },
    {
      "bufferView": 0,
      "componentType": 5125,
      "count": 44835,
      "type": "SCALAR"
    },
    {
      "bufferView": 1,
      "byteOffset": 345024,
      "componentType": 5126,
      "count": 9039,
      "max": [
        346.7246398925781,
        127.8566665649414,
        14.711982727050781
      ],
      "min": [
        -346.7246398925781,
        -20.51017951965332,
        -1054.0015869140625
      ],
      "type": "VEC3"
    },
    {
      "bufferView": 1,
      "byteOffset": 453492,
      "componentType": 5126,
      "count": 9039,
      "max": [
        1.0,
        1.0,
        0.9999999403953552
      ],
      "min": [
        -1.0,
        -1.0,
        -1.0
      ],
      "type": "VEC3"
    },
    {
      "bufferView": 1,
      "byteOffset": 561960,
      "componentType": 5126,
      "count": 9039,
      "max": [
        1.0,
        0.8196078538894653,
        0.9254902005195618
      ],
      "min": [
        0.250980406999588,
        0.250980406999588,
        0.0
      ],
      "type": "VEC3"
    },
    {
      "bufferView": 0,
      "byteOffset": 179340,
      "componentType": 5125,
      "count": 28701,
      "type": "SCALAR"
    },
    {
      "bufferView": 1,
      "byteOffset": 670428,
      "componentType": 5126,
      "count": 3543,
      "max": [
        247.5283966064453,
        113.47500610351563,
        15.29079532623291
      ],
      "min": [
        -165.0366973876953,
        -18.360336303710938,
        -868.928955078125
      ],
      "type": "VEC3"
    },
    {
      "bufferView": 1,
      "byteOffset": 712944,
      "componentType": 5126,
      "count": 3543,
      "max": [
        1.0,
        1.0,
        1.0
      ],
      "min": [
        -1.0,
        -1.0,
        -1.0
      ],
      "type": "VEC3"
    },
    {
      "bufferView": 1,
      "byteOffset": 755460,
      "componentType": 5126,
      "count": 3543,
      "max": [
        1.0,
        0.8196078538894653,
        0.9333333373069763
      ],
      "min": [
        0.250980406999588,
        0.0,
        0.0
      ],
      "type": "VEC3"
    },
    {
      "bufferView": 0,
      "byteOffset": 294144,
      "componentType": 5125,
      "count": 9642,
      "type": "SCALAR"
    }
  ],
  "asset": {
    "extras": {
      "author": "Matagami (https://sketchfab.com/Matagami)",
      "license": "CC-BY-4.0 (http://creativecommons.org/licenses/by/4.0/)",
      "source": "https://sketchfab.com/3d-models/f117-64-mm-edf-fc868b4444d44f838b3dae3956aa4d8d",
      "title": "F117 - 64 mm EDF"
    },
    "generator": "Sketchfab-10.46.0",
    "version": "2.0"
  },
  "bufferViews": [
    {
      "buffer": 0,
      "byteLength": 332712,
      "name": "floatBufferViews",
      "target": 34963
    },
    {
      "buffer": 0,
      "byteLength": 797976,
      "byteOffset": 332712,
      "byteStride": 12,
      "name": "floatBufferViews",
      "target": 34962
    }
  ],
  "buffers": [
    {
      "byteLength": 1130688,
      "uri": "scene.bin"
    }
  ],
  "materials": [
    {
      "doubleSided": true,
      "name": "Scene_-_Root",
      "pbrMetallicRoughness": {
        "metallicFactor": 0.0,
        "roughnessFactor": 0.6
      }
    }
  ],
  "meshes": [
    {
      "name": "Object_0",
      "primitives": [
        {
          "attributes": {
            "COLOR_0": 2,
            "NORMAL": 1,
            "POSITION": 0
          },
          "indices": 3,
          "material": 0,
          "mode": 4
        }
      ]
    },
    {
      "name": "Object_1",
      "primitives": [
        {
          "attributes": {
            "COLOR_0": 6,
            "NORMAL": 5,
            "POSITION": 4
          },
          "indices": 7,
          "material": 0,
          "mode": 4
        }
      ]
    },
    {
      "name": "Object_2",
      "primitives": [
        {
          "attributes": {
            "COLOR_0": 10,
            "NORMAL": 9,
            "POSITION": 8
          },
          "indices": 11,
          "material": 0,
          "mode": 4
        }
      ]
    }
  ],
  "nodes": [
    {
      "children": [
        1
      ],
      "matrix": [
        1.0,
        -1.608122622957729e-16,
        -1.6081226229577294e-16,
        0.0,
        1.6081226229577292e-16,
        1.0,
        0.0,
        0.0,
        1.6081226229577292e-16,
        0.0,
        1.0,
        0.0,
        7.48874161467239e-14,
        -573.0288085937501,
        465.68231201171864,
        1.0
      ],
      "name": "Sketchfab_model"
    },
    {
      "children": [
        2,
        3,
        4
      ],
      "name": "Geode"
    },
    {
      "mesh": 0,
      "name": "Object_2"
    },
    {
      "mesh": 1,
      "name": "Object_3"
    },
    {
      "mesh": 2,
      "name": "Object_4"
    }
  ],
  "scene": 0,
  "scenes": [
    {
      "name": "Sketchfab_Scene",
      "nodes": [
        0
      ]
    }
  ]
}
